<?xml version="1.0" encoding="UTF-8" standalone="yes"?>
<svg id="Guías" xmlns="http://www.w3.org/2000/svg" viewBox="0 0 1658.16 492.37">
  <defs>
    <style>
      .cls-1 {
        stroke: #033453;
        strokeLinecap: square;
        strokeLinejoin: round;
      }

      .cls-1, .cls-2, .cls-3, .cls-4, .cls-5 {
        strokeWidth: 12px;
      }

      .cls-1, .cls-6 {
        fill: #033453;
      }

      .cls-2 {
        fill: #a6e8e8;
        stroke: #a6e8e8;
      }

      .cls-2, .cls-3, .cls-4, .cls-5 {
        stroke-miterlimit: 10;
      }

      .cls-3 {
        fill: #549ba9;
        stroke: #549ba9;
      }

      .cls-4 {
        fill: #085564;
        stroke: #085564;
      }

      .cls-5 {
        fill: #aaa;
        stroke: #aaa;
      }

      .cls-7 {
        fill: #011c2d;
      }
    </style>
  </defs>
  <g>
    <path class="cls-6" d="m1203.83,417.87c-4.6,0-8.79-1.89-12.44-5.62-2.48-2.54-4.26-5.7-5.44-9.67-.77-2.59-1.33-5.39-1.71-8.57-.61-5.11-.78-10.58-.54-17.75.1-2.96.26-6.16.5-9.78.24-3.72.5-7.1.79-10.34l.18-2.06c.2-2.22.39-4.45.6-6.67.27-2.82.56-5.64.85-8.46.26-2.52.53-5.03.8-7.55-1.4,0-2.77,0-4.13,0-2.06,0-4.12,0-6.18.02-2.92.03-5.56.38-8.07,1.07-3.37.93-6.22,2.82-8.74,5.77-1.86,2.19-3.55,4.69-5.29,7.87-.22.39-.52.58-.96.58-.56,0-1.09-.01-1.62-.01,0,0-1.79,0-1.79,0-.14,0-.44,0-.61-.26-.12-.18-.13-.4-.04-.65,2.18-5.73,4.63-11.83,7.8-17.59.88-1.61,1.88-3.2,3.05-4.86,2.3-3.28,5.5-5.66,9.51-7.08,2.22-.78,4.63-1.29,7.36-1.55,1.68-.16,3.35-.18,4.9-.18,0,0,50.64,0,50.65,0,.18,0,.4.01.57.18.18.18.17.4.17.59v3.48c0,3.92,0,7.84,0,11.76,0,.18-.02.44-.22.64-.22.22-.51.22-.65.22,0,0-26.82,0-32.9-.01-.12,1.23-.6,5.9-.6,5.9-.23,2.28-.45,4.56-.67,6.84-.19,1.97-.37,3.94-.55,5.92-.19,2.14-.38,4.27-.56,6.41-.15,1.84-.3,3.68-.43,5.52-.18,2.52-.35,5.03-.5,7.55-.22,3.94-.42,7.8-.3,11.7.09,3.25.54,6.04,1.35,8.5,1.02,3.08,2.82,5.48,5.37,7.15,1.89,1.24,4.01,1.87,6.28,1.87.47,0,.96-.03,1.45-.08,3.97-.44,6.81-2.53,8.67-6.4.8-1.67,1.42-3.55,1.93-5.91.1-.47.4-.71.87-.71.56,0,1.1,0,1.63,0s1.69,0,1.69,0c.11,0,.38,0,.58.22.2.22.17.51.16.6-.53,4.78-1.2,8.6-2.09,12.03-.98,3.73-2.03,6.47-3.42,8.89-2.67,4.64-6.29,7.77-10.77,9.31-2.23.77-4.42,1.16-6.5,1.16Z"/>
    <path class="cls-6" d="m1182.6,315.05h.06c3.69,0,7.39,0,11.08,0,4.12,0,8.24,0,12.36,0h5.47c7.18,0,14.36,0,21.54,0,.08,0,.14,0,.19,0,.23,0,.19.03.19.39,0,5.04,0,10.08,0,15.12,0,.3-.09.36-.37.36h0c-10.99,0-21.97,0-32.96-.01h0c-.31,0-.4.08-.43.38-.19,1.99-.4,3.98-.6,5.97-.23,2.28-.45,4.56-.67,6.84-.19,1.97-.37,3.95-.55,5.92-.19,2.14-.38,4.28-.56,6.41-.15,1.84-.3,3.68-.43,5.52-.18,2.52-.35,5.04-.5,7.55-.22,3.91-.42,7.82-.3,11.74.09,2.94.45,5.84,1.38,8.65,1.02,3.1,2.83,5.61,5.57,7.41,2.02,1.32,4.22,1.95,6.55,1.95.5,0,1-.03,1.51-.08,4.29-.48,7.22-2.85,9.06-6.68.92-1.92,1.52-3.95,1.96-6.02.05-.25.15-.32.38-.32,0,0,.01,0,.02,0,.54,0,1.07,0,1.61,0,.57,0,1.13,0,1.7,0h0c.2,0,.25.07.23.27-.45,4.03-1.05,8.03-2.08,11.96-.8,3.05-1.79,6.02-3.37,8.77-2.44,4.24-5.85,7.49-10.5,9.09-2.19.75-4.3,1.13-6.33,1.13-4.45,0-8.5-1.81-12.08-5.47-2.62-2.68-4.26-5.9-5.32-9.46-.82-2.78-1.34-5.62-1.69-8.49-.71-5.87-.73-11.77-.54-17.67.11-3.26.28-6.51.5-9.76.22-3.44.48-6.89.78-10.32.26-2.91.51-5.82.78-8.72.27-2.82.55-5.64.84-8.45.27-2.59.54-5.17.82-7.76.03-.25,0-.35-.29-.35h0c-3.51.01-7.02,0-10.53.02-2.77.02-5.51.35-8.2,1.09-3.64,1.01-6.56,3.08-8.98,5.93-2.08,2.45-3.8,5.14-5.35,7.95-.13.23-.26.32-.52.32,0,0-.01,0-.02,0-.53,0-1.06-.01-1.59-.01-.6,0-1.2,0-1.8,0h-.02c-.16,0-.25-.01-.17-.23,2.27-5.98,4.68-11.91,7.77-17.53.91-1.66,1.93-3.26,3.02-4.81,2.33-3.32,5.47-5.55,9.27-6.89,2.35-.83,4.77-1.29,7.24-1.52,1.61-.15,3.23-.18,4.84-.18m0-1c-1.56,0-3.23.02-4.94.18-2.77.26-5.22.78-7.48,1.57-4.11,1.45-7.39,3.89-9.76,7.26-1.18,1.68-2.18,3.29-3.08,4.91-3.18,5.78-5.64,11.9-7.83,17.65-.2.52-.06.89.09,1.11.22.32.56.48,1.01.48h.46c.45,0,.91,0,1.36,0,.53,0,1.05,0,1.58.01h0c.65,0,1.12-.28,1.42-.84,1.73-3.15,3.39-5.62,5.24-7.78,2.44-2.87,5.22-4.71,8.49-5.62,2.47-.68,5.06-1.03,7.94-1.06,2.07-.02,4.14-.02,6.22-.02,1.18,0,2.35,0,3.53,0-.25,2.34-.5,4.67-.74,7-.25,2.46-.57,5.52-.85,8.46-.21,2.2-.4,4.41-.59,6.61l-.19,2.12c-.29,3.26-.54,6.64-.79,10.35-.23,3.6-.4,6.8-.5,9.79-.24,7.19-.07,12.69.54,17.82.38,3.21.95,6.04,1.72,8.65,1.2,4.05,3.02,7.28,5.56,9.87,3.75,3.83,8.06,5.77,12.8,5.77,2.13,0,4.37-.4,6.66-1.19,4.6-1.58,8.31-4.79,11.04-9.54,1.41-2.45,2.48-5.23,3.47-9.01.9-3.45,1.57-7.3,2.11-12.1.04-.4-.05-.73-.28-.99-.23-.26-.55-.39-.94-.39-.58,0-1.14,0-1.71,0-.53,0-1.06,0-1.6,0h0c-.74,0-1.24.4-1.39,1.1-.5,2.32-1.1,4.16-1.89,5.8-1.78,3.7-4.48,5.7-8.27,6.12-.47.05-.94.08-1.4.08-2.17,0-4.19-.6-6-1.78-2.49-1.63-4.18-3.88-5.17-6.88-.8-2.42-1.23-5.16-1.33-8.36-.11-3.89.08-7.74.3-11.66.15-2.57.33-5.21.5-7.54.14-1.99.3-3.99.43-5.51.18-2.14.36-4.27.55-6.41.18-1.97.36-3.94.55-5.91.22-2.28.44-4.56.67-6.84.08-.76.15-1.52.23-2.28.11-1.06.22-2.11.32-3.17,6.06,0,12.11,0,18.15,0,4.77,0,9.53,0,14.3,0,.18,0,.64,0,1.01-.37.37-.37.36-.84.36-1,0-3.72,0-7.44,0-11.16v-3.96s0-.11,0-.11c0-.22,0-.62-.32-.95-.32-.33-.72-.33-.87-.33h-.09s-.11,0-.11,0h-21.54s-5.47,0-5.47,0h-6.18s-6.18,0-6.18,0h-11.08s-.06,0-.06,0h0Z"/>
  </g>
  <g>
    <g>
      <path class="cls-6" d="m486.4,425.25c-.28,0-.5-.22-.5-.5v-195.58c0-.28.22-.5.5-.5h37.72c.28,0,.5.22.5.5v17.3c10.09-13.3,24.77-20.03,43.64-20.03,10.07,0,19.73,1.94,28.69,5.77,8.95,3.83,16.86,9.13,23.49,15.75,6.63,6.63,11.93,14.44,15.75,23.2,3.83,8.79,5.77,18.35,5.77,28.42,0,4.42-.36,8.8-1.08,12.99-.04.23-.24.41-.48.42-6.44.22-12.62,1.6-18.38,4.11-6.31,2.75-11.89,6.53-16.58,11.22-4.7,4.7-8.48,10.28-11.22,16.58-2.75,6.3-4.14,13.17-4.14,20.42,0,1.49.07,3.02.19,4.53.02.23-.13.45-.35.52-6.88,2.12-14.17,3.19-21.66,3.19-13.84,0-25.5-3.77-34.68-11.2-.12-.1-.19-.24-.19-.39v-.28c0-.08.02-.17.06-.24l13.97-25.52c.08-.14.21-.23.37-.25.02,0,.05,0,.07,0,.13,0,.26.05.35.15l.21.21c4.92,2.17,9.99,3.27,15.08,3.27s10.41-1.03,15.17-3.06c4.76-2.02,8.98-4.88,12.55-8.47,3.57-3.59,6.4-7.85,8.42-12.64,2.01-4.79,3.03-10.03,3.03-15.57s-1.02-10.43-3.03-15.14c-2.02-4.71-4.85-8.86-8.41-12.36-3.57-3.5-7.8-6.31-12.56-8.34-4.77-2.03-9.87-3.06-15.17-3.06s-10.64,1.02-15.31,3.04c-4.67,2.02-8.8,4.81-12.28,8.29-3.48,3.49-6.26,7.62-8.28,12.3-2.01,4.67-3.03,9.73-3.03,15.05v125.38c0,.28-.22.5-.5.5h-37.72Z"/>
      <path class="cls-6" d="m568.26,226.94c10.06,0,19.56,1.91,28.5,5.73,8.94,3.82,16.72,9.04,23.33,15.65,6.61,6.61,11.83,14.3,15.65,23.05,3.82,8.76,5.73,18.16,5.73,28.22,0,4.43-.36,8.73-1.07,12.91-6.53.22-12.72,1.6-18.57,4.15-6.4,2.79-11.98,6.57-16.74,11.33-4.76,4.76-8.54,10.34-11.33,16.74-2.79,6.4-4.18,13.27-4.18,20.61,0,1.54.07,3.07.2,4.57-6.86,2.11-14.03,3.17-21.51,3.17-13.79,0-25.24-3.7-34.37-11.08v-.28l13.97-25.52.28.28c5.03,2.24,10.15,3.35,15.37,3.35s10.52-1.03,15.37-3.1c4.84-2.06,9.08-4.92,12.71-8.58,3.63-3.66,6.47-7.92,8.52-12.8,2.05-4.88,3.07-10.13,3.07-15.76s-1.03-10.55-3.07-15.33c-2.05-4.78-4.89-8.96-8.52-12.52-3.63-3.56-7.87-6.38-12.71-8.44-4.85-2.06-9.97-3.1-15.37-3.1s-10.76,1.03-15.51,3.08c-4.75,2.05-8.9,4.85-12.43,8.4-3.54,3.54-6.33,7.7-8.38,12.45-2.05,4.76-3.07,9.84-3.07,15.25v125.38h-37.72v-195.58h37.72v18.82c10.06-14.04,24.77-21.06,44.14-21.06m0-1c-18.49,0-32.99,6.42-43.14,19.08v-15.85c0-.55-.45-1-1-1h-37.72c-.55,0-1,.45-1,1v195.58c0,.55.45,1,1,1h37.72c.55,0,1-.45,1-1v-125.38c0-5.25,1.01-10.25,2.99-14.85,1.99-4.62,4.74-8.71,8.17-12.14,3.43-3.44,7.51-6.2,12.12-8.19,4.6-1.99,9.69-3,15.11-3s10.27,1.01,14.98,3.02c4.7,2.01,8.88,4.78,12.4,8.24,3.52,3.45,6.31,7.55,8.3,12.2,1.99,4.64,2.99,9.67,2.99,14.94s-1.01,10.64-3,15.37c-1.99,4.74-4.79,8.94-8.31,12.48-3.53,3.55-7.7,6.37-12.39,8.37-4.7,2-9.73,3.02-14.98,3.02s-9.97-1.07-14.79-3.19l-.15-.15c-.19-.19-.44-.29-.71-.29-.05,0-.09,0-.14.01-.31.04-.58.23-.74.51l-13.97,25.52c-.08.15-.12.31-.12.48v.28c0,.3.14.59.37.78,9.27,7.5,21.04,11.31,35,11.31,7.54,0,14.87-1.08,21.8-3.21.45-.14.74-.57.7-1.04-.13-1.5-.19-3.01-.19-4.49,0-7.18,1.38-13.98,4.1-20.22,2.72-6.25,6.46-11.78,11.12-16.43,4.65-4.65,10.18-8.39,16.43-11.12,5.7-2.48,11.82-3.85,18.2-4.07.47-.02.87-.36.95-.83.72-4.23,1.09-8.63,1.09-13.08,0-10.14-1.95-19.77-5.81-28.62-3.85-8.83-9.19-16.68-15.86-23.36-6.68-6.67-14.63-12.01-23.64-15.86-9.03-3.85-18.75-5.81-28.89-5.81h0Z"/>
    </g>
    <g>
      <path class="cls-6" d="m621.76,350.45c-.11,0-.22-.03-.31-.11-.2-.16-.25-.45-.11-.66,1.18-1.84,2.57-3.52,4.12-5,.11-.11.51-.46.51-.46.1-.09.22-.13.34-.13s.24.04.34.13c.19.17.22.47.06.67-1.43,1.87-2.97,3.69-4.57,5.4-.1.1-.23.16-.37.16Z"/>
      <path class="cls-6" d="m626.31,344.59h0m0,0c-1.43,1.86-2.94,3.65-4.54,5.36,1.15-1.8,2.5-3.44,4.04-4.91.16-.16.33-.3.5-.45m0-1h-.01s0,0,0,0h0c-.18,0-.35.05-.5.14,0,0,0,0,0,0h0s-.06.04-.08.06c0,0,0,0,0,0,0,0,0,0,0,0,0,0,0,0,0,0h0s-.05.04-.07.06l-.16.15c-.12.11-.24.21-.35.32-1.58,1.51-2.99,3.22-4.2,5.09-.28.44-.18,1.01.23,1.33.18.14.4.21.61.21.27,0,.53-.11.73-.32,1.6-1.72,3.14-3.53,4.58-5.4.15-.17.24-.4.24-.65,0-.55-.45-1-1-1h0Zm0,2h0,0Z"/>
    </g>
    <g>
      <path class="cls-6" d="m642.24,418.28c-7.24,0-14.18-1.39-20.61-4.12-6.43-2.73-12.11-6.55-16.89-11.33-4.79-4.79-8.63-10.47-11.43-16.89-2.2-5.04-3.56-10.43-4.03-16-.02-.23.13-.45.35-.52,2.34-.72,4.68-1.58,6.94-2.54,8.84-3.77,16.63-9,23.17-15.54.57-.56,1.12-1.14,1.66-1.73.1-.1.23-.16.37-.16.11,0,.22.03.31.11.2.16.25.45.11.66-.82,1.28-1.54,2.64-2.14,4.03-1.46,3.4-2.2,7.09-2.2,10.96s.74,7.33,2.2,10.66c1.46,3.34,3.52,6.32,6.12,8.86s5.6,4.57,8.94,6.05c3.32,1.47,6.96,2.21,10.82,2.21,4.12,0,7.69-.74,10.59-2.19.07-.03.15-.05.22-.05h.2c.28,0,.5.22.5.5v.28l10.14,18.05c.11.2.08.44-.08.6l-.2.2c-6.77,5.26-15.18,7.9-25.05,7.9Z"/>
      <path class="cls-6" d="m621.76,349.95h0m0,0c-.83,1.29-1.56,2.65-2.18,4.11-1.5,3.48-2.25,7.2-2.25,11.16s.75,7.45,2.25,10.86c1.5,3.41,3.57,6.42,6.23,9.01,2.65,2.6,5.68,4.64,9.08,6.15,3.4,1.5,7.07,2.25,11.02,2.25,4.22,0,7.82-.75,10.82-2.25h.2v.41l10.21,18.17-.2.2c-6.67,5.17-14.9,7.76-24.7,7.76-7.21,0-14.02-1.36-20.41-4.08-6.4-2.72-11.98-6.46-16.74-11.23-4.76-4.76-8.54-10.34-11.33-16.74-2.19-5.03-3.52-10.31-3.99-15.84,2.37-.73,4.7-1.58,6.99-2.56,8.94-3.82,16.72-9.03,23.33-15.65.57-.57,1.12-1.15,1.67-1.74m0-1s-.02,0-.03,0c-.16,0-.31.05-.44.12-.09.05-.18.11-.25.19,0,0,0,0,0,0,0,0,0,0,0,0h0c-.62.68-1.15,1.22-1.65,1.72-6.5,6.5-14.24,11.69-23.01,15.43-2.24.95-4.55,1.8-6.89,2.52-.45.14-.74.57-.7,1.04.48,5.63,1.85,11.06,4.07,16.16,2.82,6.48,6.71,12.22,11.54,17.04,4.83,4.83,10.57,8.68,17.05,11.44,6.49,2.76,13.49,4.16,20.8,4.16,9.98,0,18.5-2.68,25.31-7.97.03-.03.06-.05.09-.08l.2-.2c.32-.32.38-.81.16-1.2l-10.08-17.94v-.15c0-.55-.45-1-1-1h-.2c-.16,0-.31.04-.45.11-2.84,1.42-6.33,2.14-10.37,2.14-3.79,0-7.36-.73-10.62-2.17-3.28-1.45-6.23-3.45-8.79-5.95-2.55-2.5-4.57-5.42-6.01-8.7-1.43-3.26-2.16-6.78-2.16-10.46s.73-7.43,2.16-10.77c.58-1.35,1.28-2.67,2.08-3.92.12-.16.19-.37.19-.58,0-.55-.44-1-1-1h0Zm0,2h0,0Z"/>
    </g>
    <g>
      <path class="cls-6" d="m674.49,416.64c-.28,0-.5-.22-.5-.5v-51.16c0-3.87-.74-7.52-2.2-10.85-1.47-3.34-3.53-6.32-6.12-8.85-2.6-2.54-5.63-4.53-9.03-5.93-3.39-1.4-7-2.11-10.73-2.11s-7.5.74-10.82,2.21c-3.11,1.37-5.95,3.22-8.45,5.5-.1.09-.22.13-.34.13s-.24-.04-.34-.13c-.19-.18-.22-.47-.06-.67,3.72-4.85,6.87-10.28,9.37-16.12,2.14-5.02,3.7-10.32,4.62-15.76.04-.23.24-.41.48-.42.62-.02,1.24-.03,1.86-.03,7.12,0,13.44,1.35,18.8,4,4.94,2.45,9.29,5.96,12.95,10.44v-12.31c0-.28.22-.5.5-.5h26.74c.28,0,.5.22.5.5v102.05c0,.28-.22.5-.5.5h-26.74Z"/>
      <path class="cls-6" d="m642.24,312.46c7.07,0,13.27,1.32,18.57,3.95s9.86,6.44,13.68,11.43v-13.75h26.74v102.05h-26.74v-51.16c0-3.95-.75-7.64-2.25-11.05-1.5-3.41-3.57-6.41-6.23-9-2.65-2.59-5.71-4.61-9.18-6.04-3.47-1.43-7.11-2.15-10.92-2.15s-7.62.75-11.02,2.25c-3.19,1.41-6.05,3.28-8.58,5.59,3.75-4.9,6.9-10.31,9.43-16.23,2.17-5.08,3.72-10.37,4.66-15.87.61-.02,1.23-.03,1.84-.03m0-1c-.63,0-1.25.01-1.88.04-.47.02-.87.36-.95.83-.92,5.4-2.46,10.66-4.59,15.64-2.48,5.81-5.61,11.19-9.3,16.01-.31.41-.26.99.12,1.34.19.18.43.26.68.26s.48-.09.67-.26c2.45-2.24,5.25-4.06,8.31-5.41,3.26-1.44,6.83-2.17,10.62-2.17s7.2.7,10.54,2.07c3.34,1.38,6.32,3.34,8.87,5.83,2.55,2.49,4.57,5.41,6.01,8.69,1.43,3.27,2.16,6.85,2.16,10.65v51.16c0,.55.45,1,1,1h26.74c.55,0,1-.45,1-1v-102.05c0-.55-.45-1-1-1h-26.74c-.55,0-1,.45-1,1v10.94c-3.52-4.04-7.62-7.23-12.23-9.52-5.42-2.69-11.82-4.05-19.02-4.05h0Z"/>
    </g>
  </g>
  <g>
    <path class="cls-6" d="m715.51,418.61c-.28,0-.5-.22-.5-.5v-102.05c0-.28.22-.5.5-.5h27.76c.28,0,.5.22.5.5v11.78c7.25-9.23,17.72-13.91,31.14-13.91,8.16,0,16.17,1.92,23.79,5.72h.09c.18,0,.35.1.44.25.09.16.09.35,0,.5l-2.45,4.08-10.4,18.56c-.08.14-.21.23-.37.25-.02,0-.04,0-.07,0-.13,0-.26-.05-.35-.15l-.16-.16c-4.38-2.51-9.15-3.78-14.19-3.78-3.46,0-6.76.57-9.83,1.7-3.06,1.13-5.82,2.75-8.21,4.81-2.4,2.07-4.46,4.54-6.12,7.33-1.66,2.79-2.77,5.82-3.3,9.01v56.05c0,.28-.22.5-.49.5h-27.76Z"/>
    <path class="cls-6" d="m774.91,314.42c8.16,0,16.05,1.91,23.68,5.72h.2l-2.45,4.08-10.41,18.57-.2-.2c-4.49-2.58-9.32-3.88-14.49-3.88-3.54,0-6.87.58-10,1.73-3.13,1.16-5.92,2.79-8.37,4.9-2.45,2.11-4.53,4.59-6.23,7.45-1.7,2.86-2.83,5.92-3.37,9.18v56.13h-27.76v-102.05h27.76v13.27c7.21-9.93,17.76-14.9,31.64-14.9m0-1c-13.04,0-23.33,4.37-30.64,13v-10.37c0-.55-.45-1-1-1h-27.76c-.55,0-1,.45-1,1v102.05c0,.55.45,1,1,1h27.76c.55,0,1-.45,1-1v-56.05c.52-3.1,1.61-6.04,3.23-8.76,1.63-2.75,3.66-5.17,6.02-7.2,2.35-2.02,5.06-3.61,8.06-4.72,3.01-1.11,6.26-1.67,9.65-1.67,4.92,0,9.59,1.24,13.88,3.68l.11.11c.19.19.44.29.71.29.05,0,.09,0,.14,0,.31-.04.58-.23.74-.5l10.41-18.57,2.43-4.06c.19-.31.19-.69.01-1.01-.17-.3-.49-.5-.84-.51-7.67-3.79-15.71-5.72-23.91-5.72h0Z"/>
  </g>
  <g>
    <path class="cls-6" d="m826.71,420.33c-7.24,0-14.18-1.39-20.61-4.12-6.43-2.73-12.11-6.54-16.89-11.33-4.79-4.78-8.63-10.47-11.43-16.89-2.8-6.42-4.23-13.36-4.23-20.61s1.42-14.39,4.23-20.81c2.8-6.42,6.64-12.1,11.43-16.89,4.79-4.78,10.47-8.63,16.89-11.43,6.43-2.8,13.37-4.23,20.61-4.23s13.44,1.35,18.8,4c4.94,2.45,9.29,5.96,12.95,10.44v-12.31c0-.28.22-.5.5-.5h26.74c.28,0,.5.22.5.5v102.05c0,.28-.22.5-.5.5h-26.74c-.28,0-.5-.22-.5-.5v-51.16c0-3.87-.74-7.52-2.2-10.85-1.47-3.34-3.53-6.31-6.12-8.85-2.59-2.54-5.63-4.53-9.03-5.93-3.4-1.4-7.01-2.11-10.73-2.11s-7.5.74-10.82,2.21c-3.33,1.47-6.34,3.47-8.94,5.95-2.59,2.47-4.65,5.45-6.11,8.85-1.46,3.4-2.2,7.09-2.2,10.96s.74,7.33,2.2,10.66c1.46,3.34,3.52,6.32,6.12,8.86s5.6,4.58,8.94,6.05c3.32,1.47,6.96,2.21,10.82,2.21,4.12,0,7.69-.74,10.59-2.19.07-.03.15-.05.22-.05h.2c.28,0,.5.22.5.5v.28l10.14,18.05c.11.2.08.44-.08.6l-.2.2c-6.77,5.26-15.18,7.9-25.05,7.9Z"/>
    <path class="cls-6" d="m826.71,314.51c7.07,0,13.27,1.32,18.57,3.95s9.86,6.44,13.68,11.43v-13.75h26.74v102.05h-26.74v-51.16c0-3.95-.75-7.64-2.25-11.05-1.5-3.41-3.57-6.41-6.23-9-2.65-2.59-5.71-4.61-9.19-6.04-3.47-1.43-7.11-2.15-10.92-2.15s-7.62.75-11.02,2.25c-3.4,1.5-6.43,3.52-9.08,6.04-2.65,2.53-4.73,5.53-6.23,9.01-1.5,3.48-2.25,7.2-2.25,11.16s.75,7.45,2.25,10.86c1.5,3.41,3.57,6.42,6.23,9.01,2.65,2.6,5.68,4.64,9.08,6.15,3.4,1.5,7.07,2.25,11.02,2.25,4.22,0,7.82-.75,10.82-2.25h.2v.41l10.21,18.17-.2.2c-6.67,5.17-14.9,7.76-24.7,7.76-7.21,0-14.02-1.36-20.41-4.08-6.4-2.72-11.98-6.46-16.74-11.23-4.76-4.76-8.54-10.34-11.33-16.74-2.79-6.39-4.18-13.2-4.18-20.41s1.39-14.22,4.18-20.61c2.79-6.39,6.56-11.97,11.33-16.74s10.34-8.54,16.74-11.33c6.39-2.79,13.2-4.18,20.41-4.18m0-1c-7.31,0-14.31,1.44-20.81,4.27-6.48,2.83-12.22,6.71-17.04,11.54-4.83,4.83-8.71,10.57-11.54,17.04-2.83,6.49-4.27,13.56-4.27,21.01s1.44,14.32,4.27,20.81c2.82,6.48,6.71,12.22,11.54,17.04,4.83,4.83,10.57,8.68,17.05,11.44,6.49,2.76,13.49,4.16,20.8,4.16,9.98,0,18.5-2.68,25.31-7.97.03-.03.06-.05.09-.08l.2-.2c.32-.32.38-.81.16-1.2l-10.08-17.94v-.15c0-.55-.45-1-1-1h-.2c-.16,0-.31.04-.45.11-2.84,1.42-6.33,2.14-10.37,2.14-3.79,0-7.36-.73-10.62-2.17-3.28-1.45-6.23-3.45-8.79-5.95-2.55-2.5-4.57-5.42-6.01-8.7-1.43-3.26-2.16-6.78-2.16-10.46s.73-7.43,2.16-10.77c1.43-3.34,3.45-6.26,6-8.68,2.56-2.44,5.52-4.41,8.8-5.85,3.26-1.44,6.83-2.17,10.62-2.17s7.2.7,10.54,2.07c3.33,1.38,6.32,3.34,8.87,5.83,2.55,2.49,4.57,5.41,6.01,8.69,1.43,3.27,2.16,6.85,2.16,10.65v51.16c0,.55.45,1,1,1h26.74c.55,0,1-.45,1-1v-102.05c0-.55-.45-1-1-1h-26.74c-.55,0-1,.45-1,1v10.94c-3.52-4.04-7.62-7.24-12.23-9.52-5.42-2.69-11.82-4.05-19.02-4.05h0Z"/>
  </g>
  <g>
    <path class="cls-6" d="m1017.23,417.87c-.13,0-.26-.05-.35-.15s-.15-.22-.15-.35l.2-60.99c0-2.1-.4-4.1-1.18-5.94-.79-1.85-1.89-3.52-3.27-4.97-1.38-1.45-3.04-2.61-4.95-3.47-1.9-.85-3.93-1.29-6.02-1.29-4.33,0-8.06,1.57-11.07,4.66-3.02,3.1-4.55,6.8-4.55,11.01v60.99c0,.28-.22.5-.5.5h-27.15c-.28,0-.5-.22-.5-.5v-60.99c0-2.1-.4-4.1-1.18-5.94-.79-1.84-1.92-3.51-3.36-4.96-1.45-1.45-3.14-2.58-5.04-3.37-1.91-.79-4.08-1.19-6.44-1.19-.36,0-.51,0-2.28-3.3-1.09-2.02-2.31-4.25-3.67-6.68-1.49-2.81-3.34-6.08-5.5-9.71-.09-.15-.09-.33-.02-.48l.2-.4c.03-.07.08-.12.14-.17,5.91-4.64,12.54-7,19.7-7,7.69,0,14.03,1.73,18.86,5.16,4.55,3.23,8.17,7.24,10.76,11.95.4-.64.81-1.22,1.22-1.73,3.83-5.02,8.25-8.88,13.12-11.47,4.88-2.59,10.08-3.91,15.44-3.91,6.45,0,11.99,1.29,16.47,3.84,4.47,2.55,8.13,5.93,10.88,10.06,2.74,4.11,4.76,8.8,5.99,13.94,1.23,5.12,1.85,10.34,1.85,15.53v60.82c0,.28-.22.5-.5.5h-27.15Zm-120.64,0c-.28,0-.5-.22-.5-.5v-102.05c0-.28.22-.5.5-.5h27.15c.28,0,.5.22.5.5v102.05c0,.28-.22.5-.5.5h-27.15Z"/>
    <path class="cls-6" d="m1009.68,313.68c6.39,0,11.8,1.26,16.23,3.78,4.42,2.52,7.99,5.82,10.72,9.9,2.72,4.08,4.69,8.67,5.92,13.78,1.22,5.1,1.84,10.24,1.84,15.41v60.82h-27.15l.2-60.99c0-2.18-.41-4.23-1.22-6.14-.82-1.91-1.94-3.62-3.37-5.12-1.43-1.5-3.13-2.69-5.1-3.58-1.97-.89-4.05-1.33-6.23-1.33-4.49,0-8.3,1.6-11.43,4.81-3.13,3.21-4.69,6.99-4.69,11.36v60.99h-27.15v-60.99c0-2.18-.41-4.23-1.22-6.14-.82-1.91-1.97-3.62-3.47-5.12-1.5-1.5-3.23-2.66-5.2-3.48-1.97-.82-4.18-1.23-6.63-1.23-.14,0-.75-1.01-1.84-3.04-1.09-2.03-2.32-4.25-3.67-6.69-1.5-2.84-3.34-6.08-5.51-9.72l.2-.41c5.85-4.59,12.31-6.89,19.39-6.89,7.62,0,13.81,1.69,18.57,5.06,4.76,3.37,8.44,7.56,11.02,12.56.54-.94,1.09-1.75,1.63-2.43,3.81-4.99,8.13-8.78,12.96-11.34,4.83-2.56,9.9-3.85,15.21-3.85m-85.94,1.63v102.05h-27.15v-102.05h27.15m85.94-2.63c-5.45,0-10.72,1.33-15.68,3.97-4.94,2.62-9.41,6.53-13.29,11.62-.26.32-.52.68-.78,1.06-2.59-4.46-6.12-8.29-10.5-11.4-4.92-3.48-11.36-5.25-19.15-5.25-7.27,0-14.01,2.39-20.01,7.1-.12.09-.21.21-.28.34l-.2.41c-.15.31-.14.67.03.96,2.16,3.61,4,6.87,5.49,9.68,1.36,2.43,2.59,4.68,3.68,6.69,1.78,3.32,2.02,3.56,2.72,3.56,2.3,0,4.4.39,6.25,1.15,1.84.76,3.48,1.86,4.88,3.26,1.4,1.41,2.5,3.02,3.26,4.8.76,1.78,1.14,3.71,1.14,5.74v60.99c0,.55.45,1,1,1h27.15c.55,0,1-.45,1-1v-60.99c0-4.13,1.44-7.62,4.41-10.66,2.96-3.03,6.47-4.51,10.71-4.51,2.02,0,3.98.42,5.82,1.24,1.84.83,3.45,1.96,4.79,3.36,1.34,1.41,2.41,3.03,3.17,4.82.76,1.78,1.14,3.71,1.14,5.74l-.2,60.98c0,.27.1.52.29.71s.44.29.71.29h27.15c.55,0,1-.45,1-1v-60.82c0-5.23-.63-10.49-1.86-15.64-1.25-5.19-3.28-9.94-6.06-14.1-2.8-4.19-6.51-7.63-11.05-10.21-4.56-2.59-10.18-3.91-16.72-3.91h0Zm-85.94,1.63h-27.15c-.55,0-1,.45-1,1v102.05c0,.55.45,1,1,1h27.15c.55,0,1-.45,1-1v-102.05c0-.55-.45-1-1-1h0Z"/>
  </g>
  <g>
    <path class="cls-6" d="m1105.19,417.87c-7.38,0-14.38-1.42-20.82-4.23-6.42-2.8-12.14-6.64-16.99-11.43-4.86-4.79-8.74-10.47-11.54-16.89-2.8-6.43-4.23-13.36-4.23-20.61s1.42-14.18,4.23-20.61c2.8-6.42,6.68-12.1,11.54-16.89,4.85-4.78,10.56-8.63,16.99-11.43,6.43-2.8,13.44-4.23,20.82-4.23s14.17,1.42,20.61,4.23c6.42,2.8,12.1,6.65,16.89,11.43,4.79,4.79,8.63,10.47,11.43,16.89,2.8,6.44,4.23,13.37,4.23,20.61,0,3.96-.49,7.85-1.44,11.56-.06.22-.26.38-.48.38h-51.84c-.17,0-.33-.09-.42-.23l-12.86-20.41c-.1-.15-.1-.35-.01-.51.09-.16.26-.26.44-.26h37.29c-1.64-5.04-4.54-9.38-8.63-12.9-4.24-3.64-9.35-5.49-15.19-5.49-3.58,0-7.01.74-10.2,2.2-3.2,1.47-5.99,3.46-8.31,5.91-2.33,2.46-4.18,5.43-5.51,8.82-1.33,3.39-2.01,7.07-2.01,10.94,0,3.06.64,6.26,1.9,9.51,1.27,3.27,3.06,6.28,5.32,8.94,2.26,2.66,5.03,4.92,8.23,6.73,3.17,1.79,6.73,2.69,10.57,2.69,3.6,0,6.95-.51,9.95-1.5,2.95-.98,5.71-3.22,8.23-6.66l.25-.26c.09-.09.22-.15.35-.15h0c.13,0,.26.05.35.15l.14.14,23.59,10.58c.15.07.26.2.29.37.03.16-.02.33-.14.44l-.21.2c-4.87,6.91-11.25,12.39-18.91,16.22-7.66,3.83-15.7,5.77-23.9,5.77Zm-18.57-113.08c-.17,0-.32-.08-.42-.22s-.11-.31-.05-.47l9.8-23.68c.08-.19.26-.31.46-.31h26.94c.18,0,.35.1.44.26.09.16.08.35,0,.51l-14.49,23.68c-.09.15-.25.24-.43.24h-22.25Z"/>
    <path class="cls-6" d="m1123.35,280.61l-14.49,23.68h-22.25l9.8-23.68h26.94m-18.17,31.43c7.21,0,14.01,1.4,20.41,4.18,6.39,2.79,11.97,6.57,16.74,11.33,4.76,4.76,8.54,10.34,11.33,16.74,2.79,6.4,4.18,13.2,4.18,20.41,0,3.95-.48,7.76-1.43,11.43h-51.84l-12.86-20.41h37.96c-1.63-5.44-4.63-10.03-8.98-13.78-4.36-3.74-9.53-5.61-15.51-5.61-3.67,0-7.14.75-10.41,2.25-3.27,1.5-6.09,3.51-8.47,6.02-2.38,2.52-4.25,5.51-5.61,8.98-1.36,3.47-2.04,7.18-2.04,11.12,0,3.13.64,6.36,1.94,9.7,1.29,3.34,3.09,6.36,5.41,9.08,2.31,2.72,5.1,5,8.37,6.84,3.27,1.84,6.87,2.76,10.82,2.76,3.67,0,7.04-.51,10.1-1.53,3.06-1.02,5.88-3.3,8.47-6.84l.2-.2.2.2,23.68,10.61-.2.2c-4.9,6.94-11.16,12.32-18.78,16.12-7.62,3.81-15.51,5.72-23.68,5.72-7.35,0-14.22-1.4-20.62-4.18-6.4-2.79-12.01-6.56-16.84-11.33-4.83-4.76-8.64-10.34-11.43-16.74-2.79-6.39-4.18-13.2-4.18-20.41s1.39-14.01,4.18-20.41c2.79-6.39,6.6-11.97,11.43-16.74,4.83-4.76,10.44-8.54,16.84-11.33,6.39-2.79,13.27-4.18,20.62-4.18m18.17-32.43h-26.94c-.4,0-.77.24-.92.62l-9.8,23.68c-.13.31-.09.66.09.94.19.28.5.44.83.44h22.25c.35,0,.67-.18.85-.48l14.49-23.68c.19-.31.2-.7.02-1.01-.18-.32-.51-.51-.87-.51h0Zm0,2h0,0Zm-18.17,29.43c-7.45,0-14.52,1.44-21.01,4.27-6.48,2.83-12.25,6.71-17.14,11.53-4.9,4.84-8.82,10.57-11.64,17.05-2.83,6.49-4.27,13.49-4.27,20.81s1.44,14.32,4.27,20.81c2.82,6.48,6.74,12.22,11.64,17.05,4.89,4.83,10.66,8.71,17.14,11.53,6.5,2.83,13.57,4.27,21.01,4.27,8.28,0,16.4-1.96,24.12-5.82,7.71-3.85,14.13-9.36,19.1-16.37l.14-.14c.23-.23.34-.56.28-.89-.06-.32-.27-.6-.57-.73l-23.51-10.54-.07-.07c-.19-.19-.44-.29-.71-.29h0c-.27,0-.52.11-.71.29l-.2.2s-.07.08-.1.12c-2.45,3.35-5.13,5.53-7.98,6.48-2.95.98-6.24,1.48-9.79,1.48-3.75,0-7.23-.88-10.33-2.63-3.15-1.77-5.88-4-8.1-6.61-2.23-2.62-3.99-5.58-5.24-8.8-1.24-3.2-1.87-6.34-1.87-9.33,0-3.8.66-7.42,1.97-10.76,1.3-3.33,3.12-6.24,5.41-8.66,2.28-2.41,5.02-4.36,8.16-5.8,3.12-1.43,6.48-2.15,9.99-2.15,5.71,0,10.71,1.81,14.86,5.37,3.84,3.3,6.61,7.34,8.26,12.02h-36.59c-.36,0-.7.2-.88.52-.18.32-.16.71.03,1.02l12.86,20.41c.18.29.5.47.85.47h51.84c.46,0,.85-.31.97-.75.97-3.75,1.46-7.68,1.46-11.68,0-7.31-1.44-14.31-4.27-20.81-2.83-6.48-6.71-12.21-11.54-17.04-4.83-4.83-10.57-8.71-17.04-11.54-6.5-2.83-13.5-4.27-20.81-4.27h0Z"/>
  </g>
  <g>
    <path class="cls-6" d="m1251.01,417.87c-.28,0-.5-.22-.5-.5v-102.05c0-.28.22-.5.5-.5h27.76c.28,0,.5.22.5.5v11.78c7.25-9.23,17.72-13.91,31.14-13.91,8.16,0,16.17,1.92,23.79,5.71h.09c.18,0,.35.1.44.25.09.16.09.35,0,.5l-2.45,4.08-10.4,18.56c-.08.14-.21.23-.37.25-.02,0-.05,0-.07,0-.13,0-.26-.05-.35-.15l-.16-.16c-4.38-2.51-9.15-3.78-14.19-3.78-3.46,0-6.76.57-9.83,1.7-3.06,1.13-5.82,2.75-8.22,4.81-2.4,2.07-4.46,4.54-6.12,7.33-1.66,2.79-2.78,5.82-3.3,9.01v56.05c0,.28-.22.5-.49.5h-27.76Z"/>
    <path class="cls-6" d="m1310.41,313.68c8.16,0,16.05,1.91,23.68,5.72h.2l-2.45,4.08-10.41,18.57-.2-.2c-4.49-2.58-9.32-3.88-14.49-3.88-3.54,0-6.87.58-10,1.73-3.13,1.16-5.92,2.79-8.37,4.9-2.45,2.11-4.53,4.59-6.23,7.45-1.7,2.86-2.83,5.92-3.37,9.18v56.13h-27.76v-102.05h27.76v13.27c7.21-9.93,17.76-14.9,31.64-14.9m0-1c-13.04,0-23.33,4.37-30.64,13v-10.37c0-.55-.45-1-1-1h-27.76c-.55,0-1,.45-1,1v102.05c0,.55.45,1,1,1h27.76c.55,0,1-.45,1-1v-56.05c.52-3.1,1.61-6.04,3.23-8.76,1.63-2.75,3.66-5.17,6.02-7.2,2.35-2.02,5.06-3.61,8.06-4.72,3.01-1.11,6.26-1.67,9.65-1.67,4.92,0,9.59,1.24,13.88,3.68l.11.11c.19.19.44.29.71.29.05,0,.09,0,.14,0,.31-.04.58-.23.74-.5l10.41-18.57,2.43-4.06c.19-.31.19-.69.01-1.01-.17-.3-.49-.5-.84-.51-7.67-3.79-15.71-5.72-23.91-5.72h0Z"/>
  </g>
  <g>
    <rect class="cls-6" x="1339.71" y="314.81" width="28.15" height="103.05" rx=".5" ry=".5"/>
    <path class="cls-6" d="m1367.36,315.31v102.05h-27.15v-102.05h27.15m0-1h-27.15c-.55,0-1,.45-1,1v102.05c0,.55.45,1,1,1h27.15c.55,0,1-.45,1-1v-102.05c0-.55-.45-1-1-1h0Z"/>
  </g>
  <g>
    <path class="cls-6" d="m1420.58,417.87c-7.38,0-14.38-1.42-20.82-4.23-6.42-2.8-12.11-6.65-16.89-11.43-4.79-4.79-8.63-10.47-11.43-16.89-2.8-6.42-4.23-13.36-4.23-20.61s1.42-14.18,4.23-20.61c2.8-6.42,6.64-12.1,11.43-16.89,4.78-4.78,10.47-8.63,16.89-11.43,6.43-2.8,13.44-4.23,20.82-4.23,9.43,0,18.34,2.36,26.48,7.01,8.12,4.64,14.66,11.14,19.44,19.31l.16.16c.11.11.16.26.14.41s-.1.29-.22.37l-22.25,14.49c-.08.05-.18.08-.27.08-.13,0-.26-.05-.35-.15l-.2-.2s-.08-.1-.11-.15c-2.13-4.93-5.27-8.98-9.33-12.05-4.05-3.05-8.58-4.59-13.48-4.59-3.58,0-6.97.77-10.09,2.3-3.12,1.53-5.85,3.62-8.11,6.21-2.27,2.6-4.09,5.64-5.42,9.04-1.33,3.39-2.01,7.08-2.01,10.94s.67,7.51,2,10.84c1.33,3.33,3.15,6.26,5.42,8.73,2.25,2.45,4.98,4.41,8.1,5.8,3.12,1.39,6.51,2.1,10.1,2.1,4.91,0,9.45-1.38,13.5-4.1,4.05-2.72,7.18-6.6,9.31-11.52l.22-.43c.07-.14.21-.24.37-.27.03,0,.05,0,.08,0,.13,0,.26.05.35.15l.17.17,22,14.46c.13.08.21.22.22.37.02.15-.04.3-.14.4l-.16.16c-4.79,8.18-11.33,14.68-19.44,19.31-8.13,4.65-17.04,7.01-26.48,7.01Z"/>
    <path class="cls-6" d="m1420.58,312.05c9.39,0,18.13,2.32,26.23,6.94,8.09,4.63,14.52,11.02,19.29,19.19l.2.2-22.25,14.49-.2-.2c-2.18-5.03-5.34-9.11-9.49-12.25-4.15-3.13-8.74-4.69-13.78-4.69-3.67,0-7.11.78-10.31,2.35-3.2,1.57-5.95,3.67-8.27,6.33-2.32,2.65-4.15,5.72-5.51,9.18-1.36,3.47-2.04,7.18-2.04,11.12s.68,7.62,2.04,11.02c1.36,3.4,3.2,6.36,5.51,8.88,2.31,2.52,5.07,4.49,8.27,5.92,3.2,1.43,6.63,2.14,10.31,2.14,5.03,0,9.62-1.39,13.78-4.18,4.15-2.79,7.31-6.7,9.49-11.74l.2-.41.2.2,22.04,14.49-.2.2c-4.76,8.16-11.19,14.56-19.29,19.19-8.1,4.63-16.84,6.94-26.23,6.94-7.35,0-14.22-1.4-20.62-4.18-6.4-2.79-11.98-6.56-16.74-11.33-4.76-4.76-8.54-10.34-11.33-16.74-2.79-6.39-4.18-13.2-4.18-20.41s1.39-14.01,4.18-20.41c2.79-6.39,6.56-11.97,11.33-16.74,4.76-4.76,10.34-8.54,16.74-11.33,6.39-2.79,13.27-4.18,20.62-4.18m0-1c-7.45,0-14.52,1.44-21.01,4.27-6.48,2.83-12.22,6.71-17.04,11.54-4.83,4.83-8.71,10.57-11.54,17.04-2.83,6.49-4.27,13.49-4.27,20.81s1.44,14.32,4.27,20.81c2.82,6.48,6.71,12.22,11.54,17.04,4.83,4.83,10.56,8.71,17.04,11.54,6.5,2.83,13.57,4.27,21.01,4.27,9.52,0,18.51-2.38,26.72-7.07,8.17-4.67,14.76-11.21,19.59-19.44l.11-.11c.21-.21.32-.51.29-.81-.03-.3-.19-.57-.45-.73l-21.96-14.44-.13-.13c-.19-.19-.44-.29-.71-.29-.05,0-.11,0-.16.01-.32.05-.59.25-.73.54l-.2.41s-.02.03-.02.05c-2.09,4.83-5.16,8.64-9.13,11.3-3.96,2.66-8.41,4.01-13.22,4.01-3.52,0-6.85-.69-9.9-2.06-3.06-1.37-5.73-3.28-7.94-5.68-2.22-2.42-4.01-5.3-5.32-8.57-1.31-3.26-1.97-6.85-1.97-10.65s.66-7.43,1.97-10.76c1.31-3.35,3.1-6.34,5.33-8.89,2.21-2.54,4.89-4.59,7.95-6.09,3.05-1.49,6.37-2.25,9.87-2.25,4.79,0,9.22,1.51,13.18,4.49,3.99,3.01,7.08,7,9.18,11.85.05.12.12.22.21.31l.2.2c.19.19.45.29.71.29.19,0,.38-.05.55-.16l22.25-14.49c.25-.16.42-.43.45-.73.03-.3-.07-.6-.29-.81l-.11-.11c-4.83-8.23-11.42-14.76-19.59-19.44-8.22-4.69-17.21-7.07-26.72-7.07h0Z"/>
  </g>
  <g>
    <path class="cls-6" d="m1523.88,417.87c-7.25,0-14.18-1.39-20.61-4.12-6.43-2.73-12.11-6.55-16.9-11.33-4.79-4.79-8.63-10.47-11.43-16.89-2.8-6.43-4.23-13.36-4.23-20.61s1.42-14.39,4.23-20.81c2.8-6.42,6.64-12.1,11.43-16.89,4.78-4.78,10.47-8.63,16.89-11.43,6.43-2.8,13.37-4.23,20.61-4.23s13.44,1.35,18.8,4c4.94,2.45,9.29,5.96,12.95,10.44v-12.31c0-.28.22-.5.5-.5h26.74c.28,0,.5.22.5.5v102.05c0,.28-.22.5-.5.5h-26.74c-.28,0-.5-.22-.5-.5v-51.16c0-3.86-.74-7.51-2.2-10.85-1.47-3.34-3.53-6.31-6.12-8.85-2.6-2.54-5.63-4.53-9.03-5.93-3.4-1.4-7.01-2.11-10.73-2.11s-7.5.74-10.82,2.21c-3.33,1.47-6.34,3.47-8.94,5.95-2.59,2.47-4.65,5.45-6.11,8.85-1.46,3.4-2.2,7.09-2.2,10.96s.74,7.33,2.2,10.66c1.46,3.34,3.52,6.32,6.12,8.86,2.6,2.54,5.6,4.57,8.94,6.05,3.32,1.47,6.96,2.21,10.82,2.21,4.12,0,7.69-.74,10.59-2.19.07-.03.15-.05.22-.05h.2c.28,0,.5.22.5.5v.28l10.14,18.05c.11.2.08.44-.08.6l-.2.2c-6.77,5.26-15.18,7.9-25.05,7.9Z"/>
    <path class="cls-6" d="m1523.88,312.05c7.07,0,13.27,1.32,18.57,3.95s9.86,6.44,13.68,11.43v-13.75h26.74v102.05h-26.74v-51.16c0-3.95-.75-7.64-2.25-11.05-1.5-3.41-3.57-6.41-6.23-9-2.65-2.59-5.71-4.61-9.18-6.04-3.47-1.43-7.11-2.15-10.92-2.15s-7.62.75-11.02,2.25c-3.4,1.5-6.43,3.52-9.08,6.04-2.65,2.53-4.73,5.53-6.23,9.01-1.5,3.48-2.25,7.2-2.25,11.16s.75,7.45,2.25,10.86c1.5,3.41,3.57,6.42,6.23,9.01,2.65,2.6,5.68,4.64,9.08,6.15,3.4,1.5,7.07,2.25,11.02,2.25,4.22,0,7.82-.75,10.82-2.25h.2v.41l10.21,18.17-.2.2c-6.67,5.17-14.9,7.76-24.7,7.76-7.21,0-14.02-1.36-20.41-4.08-6.4-2.72-11.98-6.46-16.74-11.23-4.76-4.76-8.54-10.34-11.33-16.74-2.79-6.39-4.18-13.2-4.18-20.41s1.39-14.22,4.18-20.61c2.79-6.39,6.56-11.97,11.33-16.74,4.76-4.76,10.34-8.54,16.74-11.33,6.39-2.79,13.2-4.18,20.41-4.18m0-1c-7.31,0-14.31,1.44-20.81,4.27-6.48,2.83-12.22,6.71-17.04,11.54-4.83,4.83-8.71,10.57-11.54,17.04-2.83,6.49-4.27,13.56-4.27,21.01s1.44,14.32,4.27,20.81c2.82,6.48,6.71,12.21,11.54,17.04,4.83,4.83,10.57,8.68,17.05,11.44,6.49,2.76,13.49,4.16,20.8,4.16,9.98,0,18.5-2.68,25.31-7.97.03-.03.06-.05.09-.08l.2-.2c.32-.32.38-.81.16-1.2l-10.08-17.94v-.15c0-.55-.45-1-1-1h-.2c-.16,0-.31.04-.45.11-2.84,1.42-6.33,2.14-10.37,2.14-3.79,0-7.36-.73-10.62-2.17-3.28-1.45-6.23-3.45-8.79-5.95-2.55-2.5-4.57-5.42-6.01-8.7-1.43-3.26-2.16-6.78-2.16-10.46s.73-7.43,2.16-10.77c1.43-3.34,3.45-6.26,6-8.68,2.56-2.44,5.52-4.41,8.8-5.85,3.26-1.44,6.83-2.17,10.62-2.17s7.2.7,10.54,2.07c3.33,1.38,6.32,3.34,8.87,5.83,2.55,2.49,4.57,5.41,6.01,8.69,1.43,3.27,2.16,6.85,2.16,10.65v51.16c0,.55.45,1,1,1h26.74c.55,0,1-.45,1-1v-102.05c0-.55-.45-1-1-1h-26.74c-.55,0-1,.45-1,1v10.94c-3.52-4.04-7.62-7.23-12.23-9.52-5.42-2.69-11.82-4.05-19.02-4.05h0Z"/>
  </g>
  <g>
    <path class="cls-1" d="m253.71,33.96c48.23-11.22,91.11-5.57,132.59,12.9,5.2,2.32,13.54,3.91,9.82,12.05-3.69,8.09-10.32,3.7-16.24,1.17-29.03-12.41-59.15-18.73-90.92-16.37-39.6,2.95-76.71,13.23-108.6,37.73-53.69,41.24-80.84,95.9-80.81,163.74.02,50.54,19.05,93.61,52.08,131.08,1.62,1.84,3.48,3.64,4.47,5.81,1.64,3.59,1.16,6.83-2.75,9.13-3.51,2.06-6.09,2.41-9.32-.97-22.44-23.51-38.34-50.76-49-81.45-11.72-33.72-13.4-68.14-7.74-102.84,4.34-26.61,14.06-51.49,28.08-74.85,19.64-32.74,46.23-57.99,79.25-76.55,9.72-5.46,20.08-9.91,30.62-13.92,10.47-3.99,21.48-4.79,28.48-6.66Z"/>
    <path class="cls-1" d="m470.63,414.1c-12.48,13.34-27.66,23.08-43.53,31.68-22.54,12.22-46.46,21.03-71.98,24.03-39.19,4.61-77.33.3-113.67-16.12-4.77-2.15-7.06-5.43-5.34-10.26,1.96-5.5,6.84-4.87,11.03-3.36,12.34,4.45,24.55,9.14,37.48,11.9,31.08,6.64,62.15,6.66,92.67-1.77,27.88-7.7,52.99-21.6,75.87-39.36,4.06.17,8.09-.17,12.13-.59,2.64-.28,5.81-.54,5.33,3.84Z"/>
    <path class="cls-1" d="m520.56,187.74c-4.66,1.88-6.86.77-8.81-4.35-7.62-20.05-18.87-38.16-32.85-54.61-.69-.82-1.29-1.71-1.91-2.59-2.82-3.94-3.73-7.94.73-11.35,4.44-3.4,8.25-.49,10.76,2.45,6.07,7.11,11.65,14.64,17.14,22.2,8.69,11.95,14.42,25.45,20.42,38.79,2.44,5.43,2.22,9.48-5.48,9.47Z"/>
    <path class="cls-1" d="m416.38,104.06c2.47.69,4.32,2.25,5.87,4.21-16.42,22.42-32.84,44.84-49.25,67.26-2.22-.83-3.78-2.33-4.63-4.55,13.16-18.25,26.34-36.5,39.49-54.76,2.89-4.02,5.69-8.11,8.52-12.16Z"/>
    <path class="cls-1" d="m243.91,196.79c2.33-.7,4.61-.78,6.82.43-7.81,35.19-15.72,70.37-23.39,105.59-6.74,30.95-13.22,61.96-19.81,92.95-2.25,1.69-4.41.65-6.59-.19,5.05-24.35,9.95-48.73,15.19-73.04,8.65-40.09,17.51-80.14,26.3-120.2.41-1.87.99-3.7,1.49-5.55Z"/>
    <path class="cls-1" d="m273.42,184.02c-1.99-1.84-1.78-4.12-1.26-6.45,17.78,2.21,35.55,4.49,53.35,6.55,2.75.32,5.36.63,7.76,2.05-.06,1.89.22,3.85-1.11,5.48-19.58-2.54-39.16-5.08-58.74-7.62Z"/>
    <circle class="cls-3" cx="255.59" cy="180.72" r="29.76"/>
    <circle class="cls-2" cx="353.11" cy="188.59" r="29.76"/>
    <circle class="cls-5" cx="430.35" cy="92.21" r="29.76"/>
    <circle class="cls-4" cx="200.93" cy="408.71" r="29.76"/>
  </g>
  <g>
    <path class="cls-7" d="m1258.47,271.71v8.26h15.34v3.96h-15.34v8.81h16.98v3.96h-21.28v-28.95h21.28v3.96h-16.98Z"/>
    <path class="cls-7" d="m1279.41,267.75h4.26l16.65,21.96v-21.96h4.26v28.95h-4.26l-16.65-21.96v21.96h-4.26v-28.95Z"/>
    <path class="cls-7" d="m1308.36,282.2c0-8.13,6.91-14.96,15.04-14.96,4.13,0,7.92,1.73,10.66,4.55l-2.99,2.87c-1.94-2.11-4.68-3.5-7.67-3.5-5.77,0-10.66,5.06-10.66,11.04s4.89,11.08,10.66,11.08c2.99,0,5.73-1.39,7.67-3.5l2.99,2.87c-2.74,2.78-6.53,4.55-10.66,4.55-8.13,0-15.04-6.87-15.04-15Z"/>
    <path class="cls-7" d="m1336.68,284.52v-16.77h4.26v16.69c0,5.18,3.37,8.89,8.18,8.89s8.13-3.71,8.13-8.89v-16.69h4.3v16.77c0,7.42-5.18,12.68-12.43,12.68s-12.43-5.27-12.43-12.68Z"/>
    <path class="cls-7" d="m1370.44,271.71v8.26h15.34v3.96h-15.34v8.81h16.98v3.96h-21.28v-28.95h21.28v3.96h-16.98Z"/>
    <path class="cls-7" d="m1389.31,292.53l2.57-3.16c2.57,2.44,5.61,4.05,9.52,4.05s6.07-2.11,6.07-4.43c0-2.74-2.4-3.79-7.25-4.89-5.9-1.39-9.82-3.16-9.82-8.39,0-4.85,4.21-8.51,10.03-8.51,4.47,0,7.8,1.64,10.58,4.09l-2.44,3.2c-2.44-2.23-5.35-3.54-8.3-3.54-3.25,0-5.52,2.06-5.52,4.38,0,2.7,2.49,3.62,7.25,4.76,5.77,1.35,9.78,3.29,9.78,8.47,0,4.89-3.71,8.6-10.54,8.6-4.85,0-8.85-1.69-11.93-4.64Z"/>
    <path class="cls-7" d="m1423.15,271.71h-9.48v-3.96h23.26v3.96h-9.52v24.99h-4.26v-24.99Z"/>
    <path class="cls-7" d="m1457.46,290.8h-15.09l-2.53,5.9h-4.72l12.43-28.95h4.72l12.43,28.95h-4.72l-2.53-5.9Zm-1.64-3.83l-5.9-13.74-5.9,13.74h11.8Z"/>
    <path class="cls-7" d="m1467.57,267.75h9.99c9.36,0,16.01,5.98,16.01,14.45s-6.66,14.5-16.01,14.5h-9.99v-28.95Zm10.24,25.07c6.7,0,11.38-4.38,11.38-10.62s-4.68-10.58-11.38-10.58h-5.98v21.2h5.98Z"/>
    <path class="cls-7" d="m1496.14,282.2c0-8.13,6.91-14.96,15.04-14.96s14.96,6.83,14.96,14.96-6.83,15-14.96,15-15.04-6.87-15.04-15Zm25.66,0c0-5.98-4.85-11.04-10.62-11.04s-10.66,5.06-10.66,11.04,4.89,11.08,10.66,11.08,10.62-5.06,10.62-11.08Z"/>
    <path class="cls-7" d="m1544.98,286.21l7.38,10.49h-4.89l-7.08-10.07h-6.66v10.07h-4.26v-28.95h12.18c6.11,0,10.75,3.92,10.75,9.44,0,4.47-3.03,7.88-7.42,9.02Zm-11.25-3.54h7.33c4.17,0,7-2.06,7-5.48s-2.82-5.48-7-5.48h-7.33v10.96Z"/>
    <path class="cls-7" d="m1575.62,290.8h-15.09l-2.53,5.9h-4.72l12.43-28.95h4.72l12.43,28.95h-4.72l-2.53-5.9Zm-1.64-3.83l-5.9-13.74-5.9,13.74h11.8Z"/>
  </g>
</svg>